<svg width="34" height="23" viewBox="0 0 34 23" fill="none" xmlns="http://www.w3.org/2000/svg">
<path d="M2 0C1.17157 0 0.5 0.671573 0.5 1.5C0.5 2.32843 1.17157 3 2 3V0ZM22 1.5H23.5C23.5 0.671573 22.8284 0 22 0V1.5ZM20.9393 22.5607C21.5251 23.1464 22.4749 23.1464 23.0607 22.5607L32.6066 13.0147C33.1924 12.4289 33.1924 11.4792 32.6066 10.8934C32.0208 10.3076 31.0711 10.3076 30.4853 10.8934L22 19.3787L13.5147 10.8934C12.9289 10.3076 11.9792 10.3076 11.3934 10.8934C10.8076 11.4792 10.8076 12.4289 11.3934 13.0147L20.9393 22.5607ZM2 3H22V0H2V3ZM20.5 1.5V21.5H23.5V1.5H20.5Z" fill="#333333"/>
</svg>
