<svg width="148" height="146" viewBox="0 0 148 146" fill="none" xmlns="http://www.w3.org/2000/svg">
<path d="M84.6865 1.47519L93.7648 22.71L114.776 13.1246L113.741 36.1955L136.831 36.6756L125.889 57.013L146.483 67.4635L127.801 81.0394L141.821 99.3905L119.098 103.516L123.768 126.133L101.506 119.991L95.9 142.394L78.5073 127.201L63.7361 144.954L54.6578 123.719L33.647 133.304L34.6812 110.233L11.5921 109.753L22.534 89.4159L1.93977 78.9654L20.6221 65.3895L6.60167 47.0384L29.3242 42.9129L24.6545 20.2959L46.9168 26.4379L52.5226 4.0346L69.9154 19.2276L84.6865 1.47519Z" fill="#507FE6" stroke="#333333" stroke-miterlimit="10"/>
</svg>
