<svg width="337" height="195" viewBox="0 0 337 195" fill="none" xmlns="http://www.w3.org/2000/svg">
<g clip-path="url(#clip0_7_4793)">
<path d="M336.07 144.339C322.334 52.4003 236.67 -10.991 144.724 2.72037C52.7773 16.4318 -10.6061 102.128 3.13723 194.042L336.07 144.339Z" fill="white" stroke="#333333" stroke-miterlimit="10"/>
<path d="M320.377 136.646C308.675 58.3475 230.671 2.52925 146.593 15.0927C62.5152 27.6562 4.24961 103.842 15.9442 182.133L320.377 136.646Z" fill="#507FE6" stroke="#333333" stroke-miterlimit="10"/>
<path d="M36.5721 146.303L36.1118 155.653C36.1014 156.038 36.1054 156.304 36.1237 156.449C36.2083 157.119 36.4627 157.611 36.8869 157.927C37.3094 158.229 37.8916 158.333 38.6337 158.239C39.5068 158.129 40.1886 157.791 40.679 157.227C41.1695 156.662 41.4369 155.912 41.4812 154.975L41.9415 145.625L45.6738 145.154L45.2135 154.503C45.1407 155.917 44.7939 157.151 44.1731 158.205C43.565 159.243 42.7592 160.061 41.7558 160.661C40.7669 161.259 39.654 161.636 38.4172 161.792C36.8165 161.994 35.4691 161.743 34.3749 161.039C33.2953 160.332 32.6562 159.194 32.4577 157.622C32.3989 157.156 32.3801 156.656 32.4013 156.121L32.8398 146.775L36.5721 146.303ZM52.0271 144.352L51.2555 160.016L47.5231 160.487L48.2947 144.823L52.0271 144.352ZM65.524 142.647C66.9355 142.469 68.1826 142.57 69.2655 142.951C70.3611 143.315 71.236 143.922 71.8902 144.77C72.557 145.603 72.9676 146.63 73.122 147.852C73.1753 148.274 73.1914 148.812 73.1704 149.465C73.0977 150.997 72.6984 152.4 71.9723 153.674C71.2608 154.947 70.2761 155.988 69.0183 156.797C67.775 157.605 66.353 158.109 64.7524 158.311L59.012 159.036L59.7836 143.372L65.524 142.647ZM64.6774 155.083C66.0888 154.905 67.2106 154.364 68.0426 153.461C68.8747 152.558 69.318 151.386 69.3726 149.945C69.3902 149.499 69.3806 149.131 69.3439 148.84C69.2079 147.763 68.7758 146.975 68.0475 146.475C67.3173 145.961 66.3484 145.781 65.1406 145.933L63.3509 146.159L62.9094 155.307L64.6774 155.083ZM80.906 143.721C82.4776 143.522 83.7759 143.794 84.801 144.537C85.8389 145.264 86.4506 146.362 86.6362 147.831C86.6968 148.311 86.7146 148.745 86.6897 149.133C86.6737 149.475 86.6314 149.842 86.5628 150.235L78.1159 151.302C78.1123 151.391 78.1225 151.53 78.1464 151.719C78.2273 152.36 78.4634 152.825 78.8549 153.116C79.2464 153.406 79.7332 153.515 80.3152 153.441C81.2465 153.324 81.9099 152.841 82.3054 151.993L86.2778 151.491C85.9102 152.794 85.1867 153.913 84.1072 154.847C83.0278 155.782 81.7533 156.342 80.2836 156.528C78.7121 156.726 77.3983 156.448 76.3422 155.695C75.3007 154.939 74.6853 153.812 74.4961 152.313C74.4391 151.862 74.424 151.391 74.4506 150.9C74.509 149.606 74.8205 148.444 75.3849 147.411C75.9494 146.379 76.7088 145.544 77.663 144.906C78.6173 144.268 79.6983 143.873 80.906 143.721ZM82.918 148.766C82.9214 148.559 82.9185 148.419 82.9093 148.346C82.8358 147.764 82.5979 147.343 82.1955 147.084C81.7913 146.809 81.2909 146.71 80.6943 146.785C80.0541 146.866 79.5114 147.134 79.0663 147.59C78.6339 148.029 78.3535 148.618 78.2253 149.359L82.918 148.766ZM93.4061 154.87C92.4457 154.992 91.5606 154.948 90.7508 154.74C89.9556 154.53 89.3057 154.183 88.8012 153.7C88.2948 153.202 87.9966 152.597 87.9066 151.884C87.8937 151.782 87.8853 151.598 87.8813 151.333L91.4827 150.878C91.5106 151.333 91.6875 151.68 92.0134 151.92C92.3521 152.143 92.7978 152.22 93.3508 152.15C93.8164 152.091 94.191 151.955 94.4745 151.742C94.758 151.529 94.8796 151.262 94.8392 150.942C94.8006 150.636 94.6029 150.417 94.2462 150.285C93.9022 150.136 93.3353 149.979 92.5456 149.812C91.7268 149.65 91.0325 149.479 90.4629 149.299C89.906 149.104 89.408 148.789 88.9691 148.357C88.5301 147.925 88.2647 147.345 88.1728 146.617C88.0828 145.904 88.2129 145.237 88.5632 144.616C88.9117 143.981 89.4441 143.456 90.1603 143.04C90.8911 142.622 91.7585 142.35 92.7625 142.223C93.7665 142.097 94.6607 142.154 95.4451 142.395C96.2276 142.621 96.8594 143 97.3403 143.53C97.8212 144.061 98.1076 144.69 98.1995 145.417L98.219 145.748L94.8359 146.175C94.8099 145.735 94.6348 145.402 94.3107 145.177C93.9866 144.952 93.5554 144.873 93.017 144.941C92.595 144.994 92.2568 145.126 92.0024 145.335C91.7625 145.543 91.6619 145.8 91.7005 146.105C91.7409 146.425 91.9495 146.672 92.3263 146.847C92.7158 147.004 93.3054 147.166 94.0951 147.333C94.914 147.495 95.5946 147.676 96.1369 147.873C96.692 148.054 97.1808 148.355 97.6034 148.775C98.0387 149.178 98.2995 149.722 98.3859 150.405C98.4851 151.191 98.3305 151.898 97.9219 152.526C97.528 153.153 96.9356 153.671 96.1447 154.081C95.3666 154.475 94.4537 154.738 93.4061 154.87ZM103.049 139.816C102.467 139.889 101.983 139.795 101.595 139.534C101.22 139.256 101.002 138.877 100.941 138.397C100.858 137.742 101.042 137.149 101.493 136.62C101.943 136.09 102.532 135.779 103.26 135.687C103.842 135.613 104.32 135.715 104.696 135.993C105.069 136.257 105.287 136.636 105.349 137.13C105.43 137.771 105.245 138.356 104.795 138.886C104.344 139.416 103.763 139.726 103.049 139.816ZM104.825 140.878L104.224 153.327L100.491 153.798L101.092 141.349L104.825 140.878ZM112.178 139.772C113.037 139.663 113.786 139.746 114.427 140.02C115.068 140.294 115.54 140.7 115.845 141.238L115.933 139.475L119.665 139.004L119.061 151.431C118.999 152.577 118.719 153.64 118.222 154.619C117.741 155.612 117.025 156.441 116.075 157.108C115.139 157.773 114.001 158.19 112.663 158.359C110.858 158.587 109.415 158.333 108.331 157.598C107.25 156.877 106.668 155.783 106.586 154.315L110.275 153.849C110.377 154.309 110.634 154.646 111.046 154.86C111.473 155.087 112.007 155.16 112.648 155.079C113.419 154.982 114.045 154.674 114.527 154.155C115.01 153.65 115.277 152.9 115.329 151.903L115.417 150.14C115.023 150.766 114.492 151.306 113.825 151.76C113.171 152.197 112.414 152.47 111.556 152.579C110.697 152.687 109.909 152.587 109.19 152.279C108.485 151.968 107.898 151.473 107.428 150.794C106.972 150.112 106.683 149.284 106.559 148.309C106.503 147.858 106.485 147.365 106.506 146.83C106.566 145.551 106.857 144.398 107.377 143.372C107.898 142.345 108.578 141.52 109.415 140.897C110.253 140.273 111.174 139.898 112.178 139.772ZM115.632 145.7C115.643 145.432 115.634 145.189 115.607 144.971C115.517 144.258 115.235 143.725 114.761 143.37C114.303 143.014 113.753 142.877 113.113 142.958C112.371 143.051 111.728 143.406 111.185 144.022C110.64 144.623 110.346 145.399 110.304 146.35C110.293 146.618 110.302 146.861 110.329 147.079C110.419 147.792 110.695 148.334 111.155 148.704C111.629 149.058 112.178 149.196 112.804 149.117C113.546 149.023 114.189 148.669 114.732 148.053C115.275 147.437 115.575 146.653 115.632 145.7ZM129.77 137.595C130.992 137.44 131.996 137.661 132.78 138.257C133.565 138.852 134.035 139.761 134.189 140.984C134.241 141.391 134.252 141.833 134.224 142.31L133.856 149.585L130.146 150.054L130.489 143.291C130.501 143.038 130.496 142.817 130.472 142.628C130.395 142.017 130.16 141.566 129.769 141.276C129.392 140.983 128.898 140.876 128.287 140.953C127.559 141.045 126.977 141.347 126.539 141.861C126.101 142.375 125.861 143.048 125.818 143.881L125.804 143.772L125.475 150.644L121.742 151.115L122.343 138.665L126.076 138.194L125.999 139.867C126.411 139.268 126.939 138.765 127.582 138.359C128.24 137.95 128.969 137.696 129.77 137.595Z" fill="white"/>
<path d="M149.293 66.7257C149.457 67.8462 149.564 68.9744 149.612 70.1058L128.431 73.2945L116.513 75.0722C116.221 73.9751 115.989 72.8626 115.82 71.74C113.97 59.3359 119.965 48.1516 129.212 46.7724C138.46 45.3933 147.436 54.3137 149.293 66.7257Z" fill="#507FE6"/>
<path d="M149.602 70.1057C149.734 73.3253 149.305 76.5432 148.335 79.616C146.908 81.2567 145.04 82.4545 142.954 83.068C140.868 83.6814 138.649 83.6849 136.561 83.078C134.473 82.471 132.602 81.279 131.17 79.6428C129.737 78.0066 128.803 75.9946 128.477 73.8445C128.477 73.6531 128.43 73.4618 128.414 73.2785L149.602 70.1057Z" fill="#333333"/>
<path d="M148.343 79.6161C146.238 86.0892 141.71 90.8244 135.899 91.6933C127.553 92.9449 119.405 85.7862 116.536 75.2476C116.512 75.1859 116.496 75.1217 116.488 75.0562L128.406 73.2786C128.406 73.4619 128.445 73.6532 128.469 73.8446C128.795 75.9947 129.729 78.0067 131.162 79.6429C132.594 81.2791 134.465 82.4711 136.553 83.078C138.641 83.685 140.86 83.6815 142.946 83.068C145.032 82.4546 146.9 81.2568 148.327 79.6161H148.343Z" fill="white"/>
<path d="M116.489 75.0558C116.197 73.9588 115.965 72.8463 115.796 71.7237C113.946 59.3196 119.941 48.1352 129.188 46.7561C138.436 45.377 147.436 54.3134 149.293 66.7254C149.457 67.8459 149.564 68.974 149.612 70.1054C149.744 73.325 149.315 76.5429 148.345 79.6157C146.24 86.0888 141.712 90.824 135.901 91.6929C127.554 92.9445 119.407 85.7858 116.537 75.2472C116.514 75.1855 116.498 75.1213 116.489 75.0558V75.0558Z" stroke="#333333" stroke-miterlimit="10"/>
<path d="M149.603 70.1057L128.422 73.2705L116.504 75.0562" stroke="#333333" stroke-miterlimit="10"/>
<path d="M148.347 79.6081C146.92 81.2487 145.053 82.4465 142.966 83.06C140.88 83.6735 138.662 83.6769 136.573 83.07C134.485 82.463 132.614 81.2711 131.182 79.6349C129.749 77.9987 128.815 75.9866 128.49 73.8365C128.49 73.6452 128.442 73.4539 128.426 73.2705" stroke="#333333" stroke-width="0.797175" stroke-miterlimit="10"/>
<path d="M126.661 53.7395C124.456 55.7601 122.817 58.3231 121.91 61.1734C121.002 64.0237 120.857 67.0619 121.488 69.9859" stroke="white" stroke-width="3" stroke-miterlimit="10" stroke-linecap="round"/>
<path d="M176.689 62.6278C176.853 63.7509 176.96 64.8817 177.008 66.0158L155.819 69.2045L143.909 70.9822C143.618 69.8847 143.387 68.7724 143.215 67.65C141.366 55.238 147.361 44.0616 156.608 42.6745C165.855 41.2874 174.831 50.2158 176.689 62.6278Z" fill="#507FE6"/>
<path d="M177.002 66.0164C177.134 69.2339 176.703 72.4499 175.727 75.5187C174.302 77.1634 172.435 78.3649 170.348 78.9808C168.262 79.5968 166.042 79.6012 163.952 78.9937C161.863 78.3862 159.992 77.1922 158.56 75.5533C157.129 73.9144 156.198 71.8993 155.877 69.7471L155.805 69.1811L177.002 66.0164Z" fill="#333333"/>
<path d="M175.734 75.5188C173.638 81.9918 169.11 86.735 163.298 87.604C154.952 88.8476 146.805 81.6889 143.935 71.1503C143.913 71.091 143.897 71.0295 143.887 70.9669L155.797 69.1892L155.869 69.7552C156.19 71.9074 157.121 73.9224 158.552 75.5613C159.983 77.2002 161.855 78.3943 163.944 79.0018C166.034 79.6093 168.253 79.6048 170.34 78.9889C172.427 78.373 174.294 77.1714 175.718 75.5267L175.734 75.5188Z" fill="white"/>
<path d="M143.889 70.9664C143.598 69.8689 143.366 68.7566 143.195 67.6342C141.346 55.2222 147.341 44.0458 156.588 42.6587C165.835 41.2716 174.835 50.2159 176.693 62.5881C176.857 63.7112 176.963 64.842 177.012 65.9761C177.144 69.1937 176.712 72.4096 175.736 75.4784C173.639 81.9514 169.111 86.6946 163.3 87.5636C154.954 88.8072 146.807 81.6485 143.937 71.1099C143.917 71.0635 143.901 71.0155 143.889 70.9664V70.9664Z" stroke="#333333" stroke-miterlimit="10"/>
<path d="M177.002 66.0164L155.821 69.1811L143.903 70.9588" stroke="#333333" stroke-miterlimit="10"/>
<path d="M175.743 75.5106C174.318 77.1553 172.451 78.3569 170.365 78.9728C168.278 79.5887 166.058 79.5932 163.968 78.9857C161.879 78.3782 160.008 77.1841 158.576 75.5452C157.145 73.9063 156.214 71.8913 155.893 69.7391L155.821 69.1731" stroke="#333333" stroke-width="0.797175" stroke-miterlimit="10"/>
<path d="M154.062 49.6179C151.855 51.6363 150.217 54.1978 149.309 57.047C148.401 59.8962 148.256 62.9336 148.888 65.8564" stroke="white" stroke-width="3" stroke-miterlimit="10" stroke-linecap="round"/>
</g>
<defs>
<clipPath id="clip0_7_4793">
<rect width="335.659" height="194.072" fill="white" transform="translate(0.867188 0.472656)"/>
</clipPath>
</defs>
</svg>
