<svg width="296" height="420" viewBox="0 0 296 420" fill="none" xmlns="http://www.w3.org/2000/svg">
<g clip-path="url(#clip0_106_3433)">
<path d="M54.8663 60.9997C52.3018 73.093 52.7148 85.6285 56.0699 97.5268C59.425 109.425 65.6216 120.33 74.1261 129.302C62.7178 134.066 52.6382 141.531 44.7547 151.055C36.8712 160.578 31.4201 171.875 28.8704 183.972C26.2781 196.194 26.7274 208.866 30.1787 220.874C33.63 232.883 39.9779 243.859 48.6643 252.84C37.0833 257.542 26.8348 265.017 18.8199 274.608C10.805 284.2 5.26921 295.613 2.69919 307.845C0.624117 317.658 0.502308 327.783 2.34074 337.643C4.17917 347.503 7.94183 356.904 13.4138 365.31C18.8858 373.716 25.96 380.961 34.2324 386.633C42.5047 392.304 51.8133 396.291 61.6264 398.364L150.44 417.138C160.253 419.212 170.379 419.332 180.239 417.493C190.099 415.654 199.5 411.89 207.905 406.417C216.311 400.945 223.556 393.87 229.227 385.597C234.899 377.325 238.885 368.016 240.959 358.203C243.555 345.982 243.11 333.31 239.664 321.301C236.219 309.292 229.877 298.312 221.197 289.327C232.779 284.626 243.028 277.151 251.043 267.56C259.058 257.968 264.593 246.554 267.162 234.322C269.727 222.228 269.314 209.693 265.958 197.795C262.603 185.896 256.407 174.992 247.902 166.02C259.311 161.255 269.39 153.79 277.274 144.267C285.157 134.743 290.608 123.447 293.158 111.349C295.23 101.534 295.349 91.4073 293.507 81.5465C291.665 71.6858 287.898 62.2844 282.423 53.8794C276.947 45.4744 269.869 38.2304 261.593 32.5611C253.318 26.8918 244.006 22.9083 234.191 20.838L145.386 2.06455C135.572 -0.00933176 125.447 -0.130014 115.587 1.70938C105.727 3.54878 96.3255 7.31224 87.92 12.7849C79.5145 18.2575 72.2693 25.3322 66.5979 33.6049C60.9265 41.8776 56.9401 51.1864 54.8663 60.9997Z" fill="white" stroke="#333333" stroke-miterlimit="10"/>
<path d="M281.873 109.532L282.184 108.074C283.987 99.5499 284.093 90.7546 282.496 82.19C280.899 73.6255 277.63 65.4594 272.877 58.1581C268.124 50.8568 261.979 44.5634 254.793 39.6373C247.607 34.7112 239.521 31.2489 230.997 29.4481L144.823 11.2327C136.3 9.43119 127.505 9.32619 118.942 10.9237C110.378 12.5211 102.213 15.7898 94.9124 20.5429C87.6121 25.2961 81.3194 31.4407 76.3938 38.6259C71.4683 45.8111 68.0062 53.8961 66.2054 62.4193L65.8945 63.8701C63.07 77.2305 64.4367 91.137 69.8082 103.692C75.1797 116.247 84.2943 126.838 95.9081 134.022C82.3879 135.897 69.7751 141.897 59.7891 151.203C49.803 160.508 42.9296 172.667 40.1058 186.021L39.8029 187.48C36.9712 200.834 38.3277 214.736 43.6876 227.291C49.0475 239.845 58.1498 250.44 69.7528 257.632C56.2335 259.51 43.6218 265.51 33.6362 274.815C23.6505 284.12 16.7764 296.278 13.9505 309.631L13.6396 311.09C10.0036 328.303 13.3535 346.255 22.9527 360.999C32.5518 375.742 47.6139 386.069 64.8263 389.708L151.049 407.891C168.263 411.53 186.217 408.181 200.962 398.581C215.707 388.982 226.035 373.919 229.674 356.705L229.977 355.254C232.806 341.9 231.449 327.999 226.089 315.445C220.729 302.891 211.629 292.295 200.027 285.102C213.547 283.228 226.159 277.23 236.145 267.926C246.132 258.622 253.005 246.464 255.829 233.11L256.14 231.652C258.962 218.291 257.595 204.386 252.223 191.831C246.852 179.277 237.739 168.685 226.127 161.5C239.633 159.616 252.23 153.616 262.205 144.317C272.179 135.019 279.047 122.873 281.873 109.532Z" fill="#50EA97" stroke="#333333" stroke-miterlimit="10"/>
<path d="M162.741 34.7514L152.707 48.296L148.268 47.2786L149.87 37.2406L143.379 46.1579L138.94 45.1405L141.233 29.8214L145.157 30.7209L142.881 41.7328L150.003 31.8318L154.056 32.7607L152.203 43.8017L158.795 33.847L162.741 34.7514ZM168.715 39.1903C170.259 39.5442 171.385 40.2461 172.092 41.296C172.817 42.3349 173.014 43.5763 172.683 45.0202C172.575 45.4919 172.442 45.9055 172.286 46.2608C172.153 46.5765 171.987 46.9071 171.787 47.2525L163.489 45.3503C163.455 45.4328 163.416 45.567 163.374 45.7529C163.23 46.3819 163.291 46.9001 163.559 47.3076C163.827 47.715 164.247 47.9843 164.819 48.1154C165.733 48.3251 166.522 48.0996 167.185 47.4391L171.088 48.3337C170.295 49.4308 169.231 50.2327 167.896 50.7393C166.561 51.2458 165.172 51.3336 163.728 51.0027C162.184 50.6488 161.046 49.9364 160.313 48.8657C159.595 47.7982 159.404 46.5282 159.742 45.0558C159.843 44.6126 159.991 44.165 160.185 43.7128C160.685 42.5183 161.377 41.5333 162.262 40.7581C163.147 39.9829 164.147 39.4598 165.262 39.1888C166.378 38.9178 167.528 38.9183 168.715 39.1903ZM168.87 44.6201C168.944 44.4266 168.99 44.294 169.006 44.2225C169.137 43.6507 169.058 43.1737 168.77 42.7916C168.485 42.3952 168.049 42.1298 167.463 41.9954C166.834 41.8512 166.232 41.9164 165.657 42.191C165.1 42.4546 164.634 42.912 164.259 43.5634L168.87 44.6201ZM179.507 43.6276C180.092 43.175 180.775 42.8573 181.554 42.6748C182.333 42.4923 183.137 42.496 183.966 42.6861C185.253 42.981 186.193 43.6403 186.786 44.664C187.396 45.6767 187.536 46.9049 187.205 48.3488C187.1 48.8063 186.946 49.2825 186.742 49.7775C186.246 50.9578 185.575 51.9476 184.73 52.747C183.888 53.532 182.964 54.0803 181.96 54.3918C180.959 54.689 179.965 54.7245 178.979 54.4984C178.136 54.3051 177.466 53.9785 176.969 53.5186C176.476 53.0444 176.165 52.4991 176.035 51.8826L175.351 53.4864L171.685 52.6459L178.131 37.4213L181.798 38.2618L179.507 43.6276ZM183.032 48.9272C183.131 48.694 183.203 48.4773 183.249 48.2772C183.413 47.5624 183.333 46.9573 183.01 46.462C182.702 45.97 182.233 45.6519 181.604 45.5077C180.875 45.3406 180.15 45.4527 179.428 45.844C178.706 46.2353 178.155 46.8688 177.774 47.7444C177.672 47.9919 177.596 48.2228 177.547 48.4373C177.386 49.1378 177.46 49.7341 177.769 50.2261C178.077 50.7181 178.546 51.0362 179.175 51.1804C179.904 51.3475 180.63 51.2354 181.351 50.8441C182.091 50.4418 182.651 49.8028 183.032 48.9272ZM191.174 57.2938C190.231 57.0775 189.415 56.7324 188.726 56.2586C188.051 55.7879 187.56 55.239 187.252 54.6118C186.948 53.9702 186.876 53.2992 187.037 52.5987C187.06 52.4986 187.115 52.3232 187.203 52.0724L190.741 52.8834C190.611 53.3201 190.657 53.7069 190.881 54.0441C191.122 54.3702 191.514 54.5956 192.058 54.7201C192.515 54.825 192.914 54.826 193.253 54.7233C193.593 54.6205 193.799 54.4119 193.871 54.0974C193.939 53.7972 193.829 53.5236 193.54 53.2767C193.268 53.0188 192.79 52.6759 192.105 52.2482C191.392 51.8139 190.799 51.4147 190.326 51.0504C189.87 50.6751 189.511 50.209 189.247 49.652C188.983 49.095 188.934 48.4592 189.097 47.7444C189.258 47.0439 189.609 46.4624 190.152 45.9999C190.697 45.523 191.378 45.2126 192.194 45.0685C193.023 44.9276 193.931 44.9703 194.918 45.1964C195.904 45.4225 196.724 45.7835 197.378 46.2794C198.035 46.761 198.498 47.3336 198.767 47.9972C199.037 48.6608 199.089 49.35 198.925 50.0648L198.83 50.3815L195.506 49.6197C195.633 49.1974 195.583 48.8248 195.356 48.5019C195.129 48.179 194.751 47.957 194.223 47.8357C193.808 47.7407 193.445 47.7478 193.134 47.8571C192.838 47.9697 192.655 48.1761 192.586 48.4763C192.514 48.7908 192.625 49.0946 192.919 49.3877C193.23 49.6698 193.728 50.0247 194.413 50.4524C195.126 50.8867 195.703 51.2898 196.144 51.6618C196.603 52.0228 196.959 52.473 197.212 53.0124C197.482 53.5408 197.54 54.1409 197.386 54.8128C197.209 55.5848 196.82 56.1955 196.221 56.6449C195.636 57.0976 194.901 57.3806 194.017 57.4941C193.151 57.5965 192.204 57.5297 191.174 57.2938ZM205.406 46.4718C204.834 46.3407 204.411 46.0857 204.136 45.7069C203.88 45.317 203.805 44.8862 203.913 44.4144C204.061 43.7711 204.437 43.278 205.042 42.9353C205.648 42.5925 206.308 42.503 207.023 42.6669C207.594 42.7979 208.009 43.0584 208.265 43.4483C208.525 43.8239 208.6 44.2547 208.488 44.7407C208.344 45.3698 207.969 45.8557 207.364 46.1984C206.759 46.5412 206.106 46.6323 205.406 46.4718ZM206.707 48.0792L201.863 59.5632L198.196 58.7227L203.04 47.2387L206.707 48.0792ZM210.439 57.1955C210.408 57.2637 210.38 57.3549 210.354 57.4693C210.295 57.7266 210.324 57.9289 210.44 58.076C210.572 58.2264 210.809 58.3409 211.152 58.4196L212.46 58.7194L211.19 61.701L209.324 61.2734C206.922 60.7229 205.952 59.4397 206.414 57.424C206.483 57.1238 206.606 56.7531 206.782 56.3121L208.731 51.7481L207.273 51.4139L208.507 48.4917L209.965 48.826L211.148 46.0276L214.815 46.8681L213.632 49.6665L216.034 50.217L214.8 53.1391L212.398 52.5886L210.439 57.1955ZM223.477 51.7424C225.02 52.0963 226.146 52.7982 226.853 53.8481C227.578 54.887 227.775 56.1284 227.444 57.5723C227.336 58.044 227.204 58.4576 227.047 58.8129C226.915 59.1286 226.749 59.4592 226.549 59.8047L218.25 57.9025C218.216 57.985 218.178 58.1191 218.135 58.305C217.991 58.934 218.053 59.4522 218.321 59.8597C218.588 60.2671 219.008 60.5364 219.58 60.6675C220.495 60.8772 221.284 60.6518 221.947 59.9912L225.85 60.8858C225.057 61.983 223.992 62.7848 222.658 63.2914C221.323 63.7979 219.933 63.8857 218.489 63.5548C216.945 63.2009 215.807 62.4886 215.074 61.4178C214.356 60.3503 214.166 59.0804 214.503 57.6079C214.605 57.1647 214.753 56.7171 214.946 56.265C215.446 55.0704 216.138 54.0855 217.023 53.3102C217.908 52.535 218.908 52.0119 220.024 51.7409C221.139 51.47 222.29 51.4705 223.477 51.7424ZM223.631 57.1723C223.706 56.9787 223.751 56.8461 223.768 56.7747C223.899 56.2028 223.82 55.7258 223.531 55.3437C223.246 54.9473 222.81 54.6819 222.224 54.5475C221.595 54.4033 220.993 54.4685 220.419 54.7431C219.862 55.0067 219.396 55.4641 219.021 56.1155L223.631 57.1723Z" fill="white"/>
<path d="M162.741 63.1552L152.707 76.6998L148.268 75.6824L149.87 65.6444L143.379 74.5617L138.94 73.5443L141.233 58.2252L145.157 59.1247L142.881 70.1366L150.003 60.2356L154.056 61.1645L152.203 72.2055L158.795 62.2508L162.741 63.1552ZM168.715 67.5941C170.259 67.948 171.385 68.6499 172.092 69.6998C172.817 70.7387 173.014 71.9801 172.683 73.424C172.575 73.8957 172.442 74.3093 172.286 74.6646C172.153 74.9803 171.987 75.3109 171.787 75.6564L163.489 73.7542C163.455 73.8367 163.416 73.9708 163.374 74.1567C163.23 74.7857 163.291 75.3039 163.559 75.7114C163.827 76.1188 164.247 76.3881 164.819 76.5192C165.733 76.7289 166.522 76.5035 167.185 75.8429L171.088 76.7375C170.295 77.8346 169.231 78.6365 167.896 79.1431C166.561 79.6496 165.172 79.7374 163.728 79.4065C162.184 79.0526 161.046 78.3403 160.313 77.2695C159.595 76.202 159.404 74.9321 159.742 73.4596C159.843 73.0164 159.991 72.5688 160.185 72.1167C160.685 70.9221 161.377 69.9372 162.262 69.1619C163.147 68.3867 164.147 67.8636 165.262 67.5926C166.378 67.3216 167.528 67.3221 168.715 67.5941ZM168.87 73.024C168.944 72.8304 168.99 72.6978 169.006 72.6264C169.137 72.0545 169.058 71.5775 168.77 71.1954C168.485 70.799 168.049 70.5336 167.463 70.3992C166.834 70.255 166.232 70.3202 165.657 70.5948C165.1 70.8584 164.634 71.3158 164.259 71.9672L168.87 73.024ZM179.507 72.0314C180.092 71.5788 180.775 71.2612 181.554 71.0786C182.333 70.8961 183.137 70.8998 183.966 71.0899C185.253 71.3848 186.193 72.0441 186.786 73.0678C187.396 74.0805 187.536 75.3087 187.205 76.7526C187.1 77.2101 186.946 77.6863 186.742 78.1813C186.246 79.3616 185.575 80.3514 184.73 81.1508C183.888 81.9358 182.964 82.4841 181.96 82.7956C180.959 83.0928 179.965 83.1284 178.979 82.9023C178.136 82.7089 177.466 82.3823 176.969 81.9224C176.476 81.4483 176.165 80.9029 176.035 80.2864L175.351 81.8902L171.685 81.0497L178.131 65.8251L181.798 66.6656L179.507 72.0314ZM183.032 77.331C183.131 77.0978 183.203 76.8811 183.249 76.681C183.413 75.9662 183.333 75.3611 183.01 74.8658C182.702 74.3738 182.233 74.0557 181.604 73.9115C180.875 73.7444 180.15 73.8565 179.428 74.2478C178.706 74.6391 178.155 75.2726 177.774 76.1482C177.672 76.3957 177.596 76.6267 177.547 76.8411C177.386 77.5416 177.46 78.1379 177.769 78.6299C178.077 79.1219 178.546 79.44 179.175 79.5842C179.904 79.7513 180.63 79.6392 181.351 79.2479C182.091 78.8456 182.651 78.2066 183.032 77.331ZM191.174 85.6976C190.231 85.4813 189.415 85.1363 188.726 84.6624C188.051 84.1918 187.56 83.6428 187.252 83.0156C186.948 82.374 186.876 81.703 187.037 81.0025C187.06 80.9024 187.115 80.727 187.203 80.4762L190.741 81.2872C190.611 81.7239 190.657 82.1108 190.881 82.4479C191.122 82.7741 191.514 82.9994 192.058 83.1239C192.515 83.2288 192.914 83.2298 193.253 83.1271C193.593 83.0243 193.799 82.8157 193.871 82.5012C193.939 82.201 193.829 81.9274 193.54 81.6805C193.268 81.4226 192.79 81.0797 192.105 80.652C191.392 80.2177 190.799 79.8185 190.326 79.4542C189.87 79.0789 189.511 78.6128 189.247 78.0558C188.983 77.4989 188.934 76.863 189.097 76.1482C189.258 75.4477 189.609 74.8662 190.152 74.4037C190.697 73.9268 191.378 73.6164 192.194 73.4723C193.023 73.3314 193.931 73.3741 194.918 73.6002C195.904 73.8263 196.724 74.1873 197.378 74.6832C198.035 75.1648 198.498 75.7374 198.767 76.401C199.037 77.0646 199.089 77.7538 198.925 78.4686L198.83 78.7854L195.506 78.0235C195.633 77.6012 195.583 77.2286 195.356 76.9057C195.129 76.5828 194.751 76.3608 194.223 76.2395C193.808 76.1445 193.445 76.1517 193.134 76.2609C192.838 76.3735 192.655 76.5799 192.586 76.8801C192.514 77.1946 192.625 77.4984 192.919 77.7915C193.23 78.0736 193.728 78.4285 194.413 78.8562C195.126 79.2905 195.703 79.6936 196.144 80.0656C196.603 80.4266 196.959 80.8768 197.212 81.4162C197.482 81.9446 197.54 82.5447 197.386 83.2166C197.209 83.9886 196.82 84.5993 196.221 85.0487C195.636 85.5014 194.901 85.7844 194.017 85.8979C193.151 86.0003 192.204 85.9335 191.174 85.6976ZM205.406 74.8756C204.834 74.7445 204.411 74.4895 204.136 74.1107C203.88 73.7208 203.805 73.29 203.913 72.8182C204.061 72.1749 204.437 71.6819 205.042 71.3391C205.648 70.9963 206.308 70.9068 207.023 71.0707C207.594 71.2017 208.009 71.4622 208.265 71.8521C208.525 72.2277 208.6 72.6585 208.488 73.1446C208.344 73.7736 207.969 74.2595 207.364 74.6023C206.759 74.945 206.106 75.0361 205.406 74.8756ZM206.707 76.4831L201.863 87.967L198.196 87.1265L203.04 75.6425L206.707 76.4831ZM210.439 85.5993C210.408 85.6675 210.38 85.7588 210.354 85.8731C210.295 86.1304 210.324 86.3327 210.44 86.4798C210.572 86.6302 210.809 86.7448 211.152 86.8234L212.46 87.1232L211.19 90.1048L209.324 89.6772C206.922 89.1267 205.952 87.8435 206.414 85.8278C206.483 85.5276 206.606 85.157 206.782 84.7159L208.731 80.1519L207.273 79.8177L208.507 76.8955L209.965 77.2298L211.148 74.4314L214.815 75.2719L213.632 78.0703L216.034 78.6208L214.8 81.543L212.398 80.9924L210.439 85.5993ZM223.477 80.1462C225.02 80.5001 226.146 81.202 226.853 82.2519C227.578 83.2908 227.775 84.5322 227.444 85.9761C227.336 86.4479 227.204 86.8614 227.047 87.2167C226.915 87.5324 226.749 87.863 226.549 88.2085L218.25 86.3063C218.216 86.3888 218.178 86.5229 218.135 86.7088C217.991 87.3378 218.053 87.856 218.321 88.2635C218.588 88.6709 219.008 88.9402 219.58 89.0713C220.495 89.281 221.284 89.0556 221.947 88.395L225.85 89.2896C225.057 90.3868 223.992 91.1886 222.658 91.6952C221.323 92.2018 219.933 92.2895 218.489 91.9586C216.945 91.6047 215.807 90.8924 215.074 89.8216C214.356 88.7541 214.166 87.4842 214.503 86.0117C214.605 85.5685 214.753 85.1209 214.946 84.6688C215.446 83.4742 216.138 82.4893 217.023 81.714C217.908 80.9388 218.908 80.4157 220.024 80.1447C221.139 79.8738 222.29 79.8743 223.477 80.1462ZM223.631 85.5761C223.706 85.3825 223.751 85.2499 223.768 85.1785C223.899 84.6066 223.82 84.1296 223.531 83.7475C223.246 83.3511 222.81 83.0857 222.224 82.9513C221.595 82.8072 220.993 82.8724 220.419 83.1469C219.862 83.4105 219.396 83.8679 219.021 84.5193L223.631 85.5761Z" fill="white"/>
<path d="M162.741 94.0849L152.707 107.63L148.268 106.612L149.87 96.5741L143.379 105.491L138.94 104.474L141.233 89.1549L145.157 90.0544L142.881 101.066L150.003 91.1652L154.056 92.0942L152.203 103.135L158.795 93.1805L162.741 94.0849ZM168.715 98.5238C170.259 98.8777 171.385 99.5796 172.092 100.63C172.817 101.668 173.014 102.91 172.683 104.354C172.575 104.825 172.442 105.239 172.286 105.594C172.153 105.91 171.987 106.241 171.787 106.586L163.489 104.684C163.455 104.766 163.416 104.901 163.374 105.086C163.23 105.715 163.291 106.234 163.559 106.641C163.827 107.049 164.247 107.318 164.819 107.449C165.733 107.659 166.522 107.433 167.185 106.773L171.088 107.667C170.295 108.764 169.231 109.566 167.896 110.073C166.561 110.579 165.172 110.667 163.728 110.336C162.184 109.982 161.046 109.27 160.313 108.199C159.595 107.132 159.404 105.862 159.742 104.389C159.843 103.946 159.991 103.498 160.185 103.046C160.685 101.852 161.377 100.867 162.262 100.092C163.147 99.3164 164.147 98.7933 165.262 98.5223C166.378 98.2513 167.528 98.2518 168.715 98.5238ZM168.87 103.954C168.944 103.76 168.99 103.628 169.006 103.556C169.137 102.984 169.058 102.507 168.77 102.125C168.485 101.729 168.049 101.463 167.463 101.329C166.834 101.185 166.232 101.25 165.657 101.525C165.1 101.788 164.634 102.246 164.259 102.897L168.87 103.954ZM179.507 102.961C180.092 102.508 180.775 102.191 181.554 102.008C182.333 101.826 183.137 101.83 183.966 102.02C185.253 102.314 186.193 102.974 186.786 103.997C187.396 105.01 187.536 106.238 187.205 107.682C187.1 108.14 186.946 108.616 186.742 109.111C186.246 110.291 185.575 111.281 184.73 112.08C183.888 112.866 182.964 113.414 181.96 113.725C180.959 114.022 179.965 114.058 178.979 113.832C178.136 113.639 177.466 113.312 176.969 112.852C176.476 112.378 176.165 111.833 176.035 111.216L175.351 112.82L171.685 111.979L178.131 96.7548L181.798 97.5953L179.507 102.961ZM183.032 108.261C183.131 108.027 183.203 107.811 183.249 107.611C183.413 106.896 183.333 106.291 183.01 105.795C182.702 105.303 182.233 104.985 181.604 104.841C180.875 104.674 180.15 104.786 179.428 105.177C178.706 105.569 178.155 106.202 177.774 107.078C177.672 107.325 177.596 107.556 177.547 107.771C177.386 108.471 177.46 109.068 177.769 109.56C178.077 110.052 178.546 110.37 179.175 110.514C179.904 110.681 180.63 110.569 181.351 110.178C182.091 109.775 182.651 109.136 183.032 108.261ZM191.174 116.627C190.231 116.411 189.415 116.066 188.726 115.592C188.051 115.121 187.56 114.573 187.252 113.945C186.948 113.304 186.876 112.633 187.037 111.932C187.06 111.832 187.115 111.657 187.203 111.406L190.741 112.217C190.611 112.654 190.657 113.04 190.881 113.378C191.122 113.704 191.514 113.929 192.058 114.054C192.515 114.158 192.914 114.16 193.253 114.057C193.593 113.954 193.799 113.745 193.871 113.431C193.939 113.131 193.829 112.857 193.54 112.61C193.268 112.352 192.79 112.009 192.105 111.582C191.392 111.147 190.799 110.748 190.326 110.384C189.87 110.009 189.511 109.542 189.247 108.986C188.983 108.429 188.934 107.793 189.097 107.078C189.258 106.377 189.609 105.796 190.152 105.333C190.697 104.857 191.378 104.546 192.194 104.402C193.023 104.261 193.931 104.304 194.918 104.53C195.904 104.756 196.724 105.117 197.378 105.613C198.035 106.095 198.498 106.667 198.767 107.331C199.037 107.994 199.089 108.683 198.925 109.398L198.83 109.715L195.506 108.953C195.633 108.531 195.583 108.158 195.356 107.835C195.129 107.513 194.751 107.29 194.223 107.169C193.808 107.074 193.445 107.081 193.134 107.191C192.838 107.303 192.655 107.51 192.586 107.81C192.514 108.124 192.625 108.428 192.919 108.721C193.23 109.003 193.728 109.358 194.413 109.786C195.126 110.22 195.703 110.623 196.144 110.995C196.603 111.356 196.959 111.806 197.212 112.346C197.482 112.874 197.54 113.474 197.386 114.146C197.209 114.918 196.82 115.529 196.221 115.978C195.636 116.431 194.901 116.714 194.017 116.828C193.151 116.93 192.204 116.863 191.174 116.627ZM205.406 105.805C204.834 105.674 204.411 105.419 204.136 105.04C203.88 104.65 203.805 104.22 203.913 103.748C204.061 103.105 204.437 102.612 205.042 102.269C205.648 101.926 206.308 101.837 207.023 102C207.594 102.131 208.009 102.392 208.265 102.782C208.525 103.157 208.6 103.588 208.488 104.074C208.344 104.703 207.969 105.189 207.364 105.532C206.759 105.875 206.106 105.966 205.406 105.805ZM206.707 107.413L201.863 118.897L198.196 118.056L203.04 106.572L206.707 107.413ZM210.439 116.529C210.408 116.597 210.38 116.688 210.354 116.803C210.295 117.06 210.324 117.262 210.44 117.41C210.572 117.56 210.809 117.674 211.152 117.753L212.46 118.053L211.19 121.034L209.324 120.607C206.922 120.056 205.952 118.773 206.414 116.758C206.483 116.457 206.606 116.087 206.782 115.646L208.731 111.082L207.273 110.747L208.507 107.825L209.965 108.159L211.148 105.361L214.815 106.202L213.632 109L216.034 109.55L214.8 112.473L212.398 111.922L210.439 116.529ZM223.477 111.076C225.02 111.43 226.146 112.132 226.853 113.182C227.578 114.221 227.775 115.462 227.444 116.906C227.336 117.378 227.204 117.791 227.047 118.146C226.915 118.462 226.749 118.793 226.549 119.138L218.25 117.236C218.216 117.318 218.178 117.453 218.135 117.638C217.991 118.267 218.053 118.786 218.321 119.193C218.588 119.601 219.008 119.87 219.58 120.001C220.495 120.211 221.284 119.985 221.947 119.325L225.85 120.219C225.057 121.316 223.992 122.118 222.658 122.625C221.323 123.131 219.933 123.219 218.489 122.888C216.945 122.534 215.807 121.822 215.074 120.751C214.356 119.684 214.166 118.414 214.503 116.941C214.605 116.498 214.753 116.051 214.946 115.598C215.446 114.404 216.138 113.419 217.023 112.644C217.908 111.869 218.908 111.345 220.024 111.074C221.139 110.803 222.29 110.804 223.477 111.076ZM223.631 116.506C223.706 116.312 223.751 116.18 223.768 116.108C223.899 115.536 223.82 115.059 223.531 114.677C223.246 114.281 222.81 114.015 222.224 113.881C221.595 113.737 220.993 113.802 220.419 114.077C219.862 114.34 219.396 114.798 219.021 115.449L223.631 116.506Z" fill="white"/>
<path d="M146.08 153.568V153.919L145.37 153.751L82.8159 137.489C86.609 131.245 92.3061 126.384 99.0689 123.62C105.832 120.856 113.303 120.336 120.383 122.137C127.464 123.937 133.779 127.962 138.401 133.62C143.022 139.278 145.706 146.271 146.056 153.568H146.08Z" fill="#50EA97"/>
<path d="M145.393 153.751L146.102 153.919C146.3 159.234 145.253 164.521 143.044 169.359C140.836 174.198 137.526 178.453 133.381 181.784C129.235 185.116 124.368 187.433 119.168 188.549C113.967 189.665 108.578 189.55 103.43 188.213C98.2826 186.876 93.5186 184.355 89.5188 180.849C85.5189 177.344 82.394 172.951 80.3934 168.023C78.3928 163.095 77.572 157.768 77.9966 152.466C78.4211 147.165 80.0791 142.036 82.8384 137.489L145.393 153.751Z" fill="white"/>
<path d="M82.8421 137.489C86.6352 131.245 92.3322 126.384 99.095 123.62C105.858 120.856 113.329 120.336 120.41 122.137C127.49 123.937 133.806 127.962 138.427 133.62C143.048 139.278 145.732 146.271 146.082 153.568V153.919C146.28 159.234 145.233 164.521 143.024 169.36C140.815 174.198 137.506 178.453 133.36 181.784C129.215 185.116 124.347 187.433 119.147 188.549C113.947 189.665 108.558 189.55 103.41 188.213C98.2624 186.876 93.4984 184.355 89.4985 180.849C85.4987 177.344 82.3737 172.952 80.3732 168.024C78.3726 163.096 77.5518 157.768 77.9763 152.466C78.4008 147.165 80.0589 142.036 82.8181 137.489H82.8421Z" stroke="#333333" stroke-miterlimit="10"/>
<path d="M82.832 137.489L145.394 153.751L146.096 153.919" stroke="#333333" stroke-miterlimit="10"/>
<path d="M111.984 145.389L83.2859 138.15C81.739 139.848 80.5428 141.835 79.7657 143.996C78.9887 146.158 78.6462 148.451 78.758 150.746C79.1964 159.897 89.1212 166.857 98.2967 166.418C101.061 166.292 103.75 165.475 106.117 164.042C108.485 162.609 110.455 160.606 111.849 158.215L101.621 149.502L114.647 146.002C114.559 145.684 112.04 145.699 111.984 145.389Z" fill="#333333" stroke="#333333" stroke-miterlimit="10"/>
<path d="M94.6213 135.073C94.6213 135.073 100.696 124.71 116.863 126.504" stroke="white" stroke-width="3" stroke-miterlimit="10" stroke-linecap="round"/>
<path d="M205.518 168.618V168.977L204.816 168.81L142.278 152.547C146.069 146.3 151.766 141.436 158.529 138.669C165.293 135.903 172.766 135.381 179.848 137.181C186.93 138.98 193.248 143.006 197.87 148.666C202.493 154.325 205.176 161.319 205.525 168.618H205.518Z" fill="#50EA97"/>
<path d="M204.831 168.81L205.532 168.977C205.728 174.29 204.679 179.575 202.47 184.41C200.261 189.246 196.952 193.498 192.807 196.827C188.662 200.156 183.797 202.471 178.599 203.586C173.401 204.701 168.014 204.586 162.869 203.249C157.723 201.913 152.962 199.392 148.963 195.889C144.965 192.385 141.841 187.995 139.84 183.07C137.84 178.144 137.018 172.819 137.441 167.52C137.864 162.221 139.52 157.093 142.276 152.548L204.831 168.81Z" fill="white"/>
<path d="M142.28 152.547C146.071 146.3 151.768 141.436 158.531 138.669C165.295 135.903 172.768 135.381 179.85 137.181C186.932 138.98 193.25 143.006 197.872 148.666C202.495 154.325 205.179 161.319 205.528 168.618V168.977C205.726 174.291 204.678 179.577 202.47 184.414C200.261 189.251 196.952 193.505 192.807 196.836C188.663 200.166 183.796 202.482 178.597 203.598C173.398 204.713 168.01 204.598 162.864 203.261C157.717 201.924 152.955 199.403 148.956 195.898C144.957 192.393 141.833 188.002 139.833 183.075C137.834 178.148 137.013 172.821 137.438 167.521C137.863 162.221 139.521 157.093 142.28 152.547V152.547Z" stroke="#333333" stroke-miterlimit="10"/>
<path d="M142.27 152.539L204.824 168.802L205.533 168.969" stroke="#333333" stroke-miterlimit="10"/>
<path d="M171.393 160.44L142.695 153.201C141.151 154.901 139.957 156.888 139.181 159.049C138.405 161.21 138.064 163.503 138.175 165.797C138.614 174.948 148.538 181.908 157.706 181.469C160.469 181.343 163.158 180.528 165.525 179.096C167.892 177.665 169.863 175.663 171.258 173.274L161.038 164.561L174.072 161.054C174 160.735 171.473 160.751 171.393 160.44Z" fill="#333333" stroke="#333333" stroke-miterlimit="10"/>
<path d="M154.055 150.124C154.055 150.124 160.137 139.761 176.296 141.555" stroke="white" stroke-width="3" stroke-miterlimit="10" stroke-linecap="round"/>
<path d="M107.153 202.546C105.248 209.218 111.833 216.943 121.853 219.805C131.874 222.667 141.551 219.582 143.457 212.917L107.153 202.546Z" fill="white" stroke="#333333" stroke-miterlimit="10"/>
</g>
<defs>
<clipPath id="clip0_106_3433">
<rect width="294.556" height="419.163" fill="white" transform="translate(0.628906)"/>
</clipPath>
</defs>
</svg>
