<svg width="160" height="160" viewBox="0 0 160 160" fill="none" xmlns="http://www.w3.org/2000/svg">
<g clip-path="url(#clip0_7_4860)">
<path d="M79.9999 159.33C123.813 159.33 159.33 123.813 159.33 79.9999C159.33 36.1872 123.813 0.669922 79.9999 0.669922C36.1872 0.669922 0.669922 36.1872 0.669922 79.9999C0.669922 123.813 36.1872 159.33 79.9999 159.33Z" fill="white" stroke="#333333" stroke-width="1.44389" stroke-miterlimit="10"/>
<path d="M79.9987 150.352C118.853 150.352 150.35 118.854 150.35 80.0002C150.35 41.146 118.853 9.64844 79.9987 9.64844C41.1445 9.64844 9.64697 41.146 9.64697 80.0002C9.64697 118.854 41.1445 150.352 79.9987 150.352Z" fill="#333333" stroke="#333333" stroke-width="1.44389" stroke-miterlimit="10"/>
<path d="M80.7485 23.3838L83.8575 23.6116L83.107 33.9433L88.1321 34.3051L87.9446 36.9181L79.8105 36.3285L80.7485 23.3838Z" fill="white"/>
<path d="M89.8759 32.2545C90.0129 31.6129 90.2775 31.0055 90.654 30.4684C91.0306 29.9312 91.5113 29.4752 92.0677 29.1277C92.624 28.7801 93.2447 28.548 93.8926 28.4452C94.5405 28.3424 95.2024 28.3709 95.839 28.5292C98.519 29.3198 99.3634 31.6917 98.6129 34.3047C98.4932 34.7368 98.327 35.1547 98.1171 35.551L92.5157 33.9429C92.4376 34.5221 92.5864 35.1091 92.931 35.5811C93.2757 36.0531 93.7895 36.3737 94.365 36.4756C95.0801 36.6698 95.8341 36.6698 96.5492 36.4756L97.0316 38.5526C95.823 38.9547 94.5228 38.992 93.293 38.6598C92.6258 38.4999 92.0001 38.2003 91.4572 37.7807C90.9143 37.3611 90.4666 36.8312 90.1437 36.2258C89.8207 35.6204 89.6299 34.9534 89.5837 34.2689C89.5376 33.5843 89.6371 32.8977 89.8759 32.2545V32.2545ZM96.2679 32.9111C96.3638 32.7085 96.4125 32.4868 96.4107 32.2626C96.4088 32.0384 96.3565 31.8176 96.2573 31.6165C96.158 31.4155 96.0145 31.2395 95.8377 31.1017C95.6608 30.9638 95.4552 30.8678 95.236 30.8207C94.7866 30.6993 94.3079 30.7519 93.8955 30.9681C93.4832 31.1842 93.1675 31.5478 93.0115 31.9865L96.2679 32.9111Z" fill="white"/>
<path d="M99.0818 37.2934C100.06 35.4441 102.043 35.2163 105.661 36.6636C105.742 36.4959 105.787 36.3132 105.793 36.1272C105.8 35.9412 105.767 35.7559 105.697 35.5832C105.628 35.4105 105.524 35.2541 105.391 35.124C105.257 34.994 105.099 34.8931 104.924 34.8277C104.082 34.4578 103.161 34.3057 102.244 34.3855V32.0807C103.755 31.9551 105.271 32.2471 106.626 32.9248C108.891 34.1309 109.494 36.0739 108.047 38.8076L105.367 43.7791L103.142 42.5999L103.41 41.6083C102.385 41.9268 101.278 41.8405 100.315 41.3671C99.9519 41.196 99.629 40.9506 99.367 40.647C99.1049 40.3433 98.9095 39.988 98.7933 39.6041C98.6771 39.2202 98.6428 38.8162 98.6925 38.4181C98.7422 38.0201 98.8748 37.6369 99.0818 37.2934V37.2934ZM104.027 39.7322L104.777 38.3252C102.941 37.6418 102.097 37.8428 101.802 38.4592C101.507 39.0756 101.802 39.4106 102.338 39.7188C102.601 39.847 102.889 39.9147 103.181 39.917C103.473 39.9194 103.762 39.8562 104.027 39.7322V39.7322Z" fill="white"/>
<path d="M113.031 37.1323L115.015 38.7136L114.09 40.201C114.633 39.9299 115.238 39.8081 115.843 39.8481C116.448 39.8882 117.032 40.0886 117.534 40.4288C117.862 40.679 118.136 40.9937 118.338 41.3534L116.261 43.1089C116.055 42.8028 115.802 42.5314 115.51 42.3048C115.102 42.0201 114.615 41.8674 114.117 41.8674C113.618 41.8674 113.132 42.0201 112.723 42.3048L109.172 46.727L106.773 44.7973L113.031 37.1323Z" fill="white"/>
<path d="M120.361 43.2429L121.982 45.186L121.165 46.1374C121.767 46.161 122.358 46.3048 122.903 46.5602C123.449 46.8157 123.937 47.1776 124.341 47.6248C125.681 49.2865 125.132 50.9883 123.229 52.583L118.525 56.5227L116.529 54.1374L120.951 50.4389C121.996 49.5679 122.063 49.0989 121.554 48.4288C121.328 48.1835 121.051 47.9896 120.744 47.8602C120.436 47.7307 120.105 47.6687 119.771 47.6784L114.679 51.9264L112.709 49.5679L120.361 43.2429Z" fill="white"/>
<path d="M133.76 56.8977L134.899 60.0602L130.329 63.8927C129.713 64.3885 128.989 64.8575 128.346 65.3667V65.4471C129.19 65.4471 130.035 65.3399 130.812 65.3131H136.761L137.9 68.489L125.72 72.8575L124.755 70.1774L128.936 68.6766C130.37 68.2143 131.828 67.8295 133.304 67.5242V67.4572H130.008H124.956L124.379 65.8491L128.252 62.5928L130.825 60.556V60.489C129.673 61.0652 127.944 61.9496 126.725 62.3919L122.544 63.8927L121.592 61.2126L133.76 56.8977Z" fill="white"/>
<path d="M130.747 73.903C131.694 73.8956 132.622 74.1648 133.419 74.6777C134.215 75.1905 134.844 75.9247 135.229 76.7901C135.614 77.6554 135.738 78.6143 135.586 79.5491C135.433 80.4839 135.012 81.3539 134.372 82.0524C133.732 82.7509 132.903 83.2474 131.985 83.4811C131.067 83.7148 130.101 83.6754 129.205 83.3678C128.309 83.0603 127.523 82.4979 126.942 81.7497C126.361 81.0015 126.012 80.1 125.936 79.1559C125.884 78.4901 125.97 77.8209 126.188 77.1896C126.406 76.5583 126.751 75.9785 127.202 75.4861C127.653 74.9936 128.2 74.599 128.81 74.3267C129.42 74.0544 130.079 73.9102 130.747 73.903V73.903ZM131.242 80.4289C132.904 80.2949 133.922 79.7053 133.815 78.5529C133.708 77.4005 132.649 76.9448 130.988 77.0654C129.326 77.186 128.308 77.8025 128.442 78.9683C128.576 80.1341 129.607 80.5495 131.242 80.4289Z" fill="white"/>
<path d="M136.187 86.4725L135.892 88.9783H134.164V89.0453C134.68 89.3603 135.103 89.8067 135.39 90.3387C135.677 90.8708 135.818 91.4695 135.798 92.0738C135.767 92.4871 135.648 92.889 135.45 93.253L132.864 92.4222C133.001 92.0832 133.091 91.727 133.132 91.3636C133.151 90.8662 133.015 90.3751 132.744 89.9576C132.473 89.5402 132.08 89.2168 131.617 89.0319L125.989 88.3753L126.338 85.3066L136.187 86.4725Z" fill="white"/>
<path d="M130.333 93.5212C130.971 93.6709 131.572 93.9476 132.1 94.3346C132.629 94.7216 133.074 95.2111 133.409 95.7739C133.744 96.3366 133.962 96.9611 134.051 97.6101C134.14 98.2591 134.097 98.9193 133.924 99.5513C133.08 102.231 130.682 103.009 128.082 102.231C127.656 102.106 127.247 101.931 126.862 101.709L128.578 96.1477C128.001 96.0537 127.411 96.1889 126.932 96.5244C126.454 96.8599 126.126 97.3691 126.018 97.9433C125.817 98.6574 125.817 99.4134 126.018 100.128L123.941 100.556C123.566 99.3429 123.566 98.0445 123.941 96.831C124.114 96.175 124.422 95.5624 124.846 95.0329C125.27 94.5033 125.8 94.0685 126.402 93.7566C127.004 93.4447 127.666 93.2626 128.343 93.2221C129.02 93.1815 129.698 93.2834 130.333 93.5212ZM129.529 99.8997C129.731 99.9983 129.952 100.05 130.176 100.052C130.4 100.054 130.622 100.006 130.825 99.9107C131.028 99.8155 131.207 99.6761 131.35 99.5026C131.492 99.3291 131.593 99.126 131.646 98.9081C131.774 98.4601 131.73 97.9804 131.521 97.5636C131.313 97.1468 130.956 96.8233 130.521 96.6568L129.529 99.8997Z" fill="white"/>
</g>
<defs>
<clipPath id="clip0_7_4860">
<rect width="160" height="160" fill="white"/>
</clipPath>
</defs>
</svg>
