<svg width="225" height="28" viewBox="0 0 225 28" fill="none" xmlns="http://www.w3.org/2000/svg">
<g clip-path="url(#clip0_7_7254)">
<path d="M104.146 11.8765C104.515 11.8792 104.868 12.0321 105.128 12.3018C105.388 12.5714 105.534 12.9361 105.534 13.3161C105.534 14.2724 105.534 15.1773 105.534 16.0924C105.534 17.0076 104.775 16.9665 104.156 16.9665H91.1727C89.0454 16.9665 86.9082 16.9048 84.7809 16.9665C84.2416 16.9665 83.3328 17.5629 83.2828 17.9947C83.0682 19.5349 83.0481 21.0971 83.2229 22.6426C83.3328 23.5577 84.1317 23.969 85.2203 23.9485C91.9117 23.8868 98.6031 23.9485 105.304 23.9485C107.751 23.9485 107.751 23.9485 107.681 26.4472C107.681 26.8996 107.592 27.3418 107.542 27.8765H77.0808C77.0808 27.424 76.981 26.9922 76.981 26.55C76.981 18.3923 76.981 10.2415 76.981 2.09757C76.981 0.20554 77.1507 0.0410156 79.0483 0.0410156H105.664C107.342 0.0410156 107.661 0.328933 107.661 2.09757C107.661 2.55001 107.661 3.00246 107.661 3.46518C107.661 5.52174 107.402 5.72739 105.454 5.72739H85.0805C83.163 5.72739 83.0831 5.87135 83.0132 7.78395C83.0132 12.6991 83.3028 11.8971 87.008 11.8971H104.146V11.8765Z" fill="black"/>
<path d="M189.246 23.9794V27.8766H158.805C159.245 24.4627 158.016 21.0488 159.534 17.748C159.884 16.9768 160.224 16.1851 160.533 15.383C161.082 13.7789 161.532 15.784 163.779 12.7403C165.727 11.5784 167.774 11.9691 169.771 11.9383C173.766 11.8766 177.701 11.856 181.666 11.9383C182.209 11.9808 182.75 11.8334 183.201 11.5198C183.653 11.2063 183.988 10.745 184.153 10.2108C184.38 9.6429 184.458 9.02302 184.377 8.41429C184.297 7.80556 184.061 7.22973 183.693 6.74547C182.695 5.47041 181.696 5.7172 180.607 5.7172C174.266 5.6555 167.924 5.63493 161.572 5.7172C160.084 5.7172 159.684 5.18249 159.724 3.79432C159.834 0.123367 159.175 0.586092 162.87 0.565527C169.115 0.565527 175.361 0.565527 181.606 0.565527C182.892 0.469498 184.184 0.591073 185.431 0.925422C187.154 1.49301 188.59 2.73848 189.426 4.39072C190.425 6.44728 190.215 8.35987 190.235 10.365C190.235 12.9563 188.617 14.4781 186.749 15.9177C185.072 17.2442 183.214 16.946 181.396 17.018C177.192 17.1105 172.977 17.018 168.763 17.018C166.126 17.018 163.709 20.8123 164.918 23.1876C165.157 23.6504 166.156 23.8971 166.815 23.8971C173.656 23.8971 180.487 23.8971 187.329 23.8971L189.246 23.9794Z" fill="black"/>
<path d="M5.91221 14.8484H0.179594C0.129658 14.3754 0.0397723 13.8921 0.0297852 13.4088C0.0297852 9.56308 0.0297852 5.71732 0.0297852 1.86128C0.0297852 0.617065 0.449246 0.0515137 1.76755 0.0515137C12.1741 0.0926448 22.5841 0.0926448 32.9973 0.0515137C33.8961 0.0515137 34.5553 0.19547 34.5553 1.32658C34.5553 5.77902 34.5553 10.2315 34.5553 14.8998C32.6977 14.8998 30.93 14.8998 29.1822 14.8484C28.9225 14.8484 28.543 14.0361 28.5231 13.5836C28.4531 11.4654 28.4631 9.33686 28.5231 7.20832C28.5231 6.34457 28.2135 5.77902 27.3845 5.75845C24.9177 5.75845 22.4509 5.75845 19.8642 5.75845C19.8642 6.55023 19.7544 7.18776 19.7544 7.81501C19.7544 13.8887 19.7544 19.9658 19.7544 26.0464C19.7544 27.9898 19.7544 27.9898 17.7569 28.0001C16.7582 28.0001 15.7595 27.9487 14.7608 28.0001C13.5524 28.0926 13.1429 27.6299 13.1529 26.3549C13.1529 20.1852 13.1529 14.0155 13.1529 7.84586C13.1529 5.7276 13.1529 5.72761 11.0156 5.72761C9.77722 5.72761 8.52883 5.72761 7.29043 5.72761C6.36162 5.72761 5.98211 6.07722 6.01208 7.08493C6.08199 9.04894 6.01208 11.0335 6.01208 13.0078C6.00209 13.5631 5.95216 14.1595 5.91221 14.8484Z" fill="black"/>
<path d="M71.0884 27.8868H65.176C65.176 24.8739 65.176 21.9433 65.176 19.023C65.176 17.5732 64.8464 16.9665 63.2684 17.0282C57.942 17.131 52.5889 17.131 47.2091 17.0282C45.7011 17.0282 45.3715 17.604 45.4015 18.9613C45.4614 21.8919 45.4015 24.8225 45.4015 27.8662H39.4092V2.36493C39.4092 0.0410187 39.4092 0.0101699 41.5964 0.0307355C45.6911 0.0307355 45.3815 -0.606795 45.3915 3.94847V11.7634H65.116V7.20811C65.116 5.32636 65.116 3.4549 65.116 1.58343C65.116 0.472893 65.5655 0.0101699 66.6241 0.0307355C67.5156 0.0820637 68.4092 0.0820637 69.3007 0.0307355C70.6589 -0.0926578 71.1782 0.514025 71.1782 1.86107C71.1782 10.221 71.1782 18.5809 71.1782 26.9305C71.1674 27.2508 71.1374 27.5702 71.0884 27.8868Z" fill="black"/>
<path d="M152.843 18.9615H132.18V27.8869H126.267C126.267 27.4653 126.177 27.0231 126.177 26.5913C126.177 18.4405 126.177 10.2896 126.177 2.13883C126.177 0.0822754 126.227 0.0822754 128.175 0.0822754H153.742C155.739 0.0822754 155.889 0.257082 155.929 2.21081C155.929 5.74809 155.929 5.74809 152.483 5.74809H134.507C133.777 5.74809 133.058 5.83035 132.189 5.88176C132.08 8.03772 132.116 10.1989 132.299 12.3496C132.379 12.8946 133.857 13.6144 134.706 13.635C139.36 13.7584 144.024 13.6967 148.688 13.6967C149.727 13.647 150.768 13.6642 151.804 13.7481C152.194 13.7481 152.803 14.3136 152.803 14.653C152.913 15.9486 152.843 17.3059 152.843 18.9615Z" fill="black"/>
<path d="M168.892 11.928H166.895C164.728 11.928 162.65 12.8142 161.118 14.3916C159.586 15.969 158.726 18.1085 158.726 20.3393V27.856H164.238V15.8766L166.695 13.9537L168.892 11.928Z" fill="black"/>
<path d="M222.793 11.8765C222.793 13.3881 222.793 14.7351 222.793 16.0924C222.793 17.1207 222.044 16.9665 221.425 16.9665H208.491C206.354 16.9665 204.217 16.9048 202.1 16.9665C201.56 16.9665 200.642 17.5629 200.592 17.9947C200.402 19.5379 200.402 21.0994 200.592 22.6426C200.702 23.5577 201.49 23.969 202.589 23.9485C209.28 23.8868 215.972 23.9485 222.663 23.9485C225.12 23.9485 225.12 23.9485 225.04 26.4472C225.04 26.8996 224.96 27.3418 224.9 27.8765H194.39C194.39 27.424 194.28 26.9922 194.28 26.55V2.09757C194.28 0.20554 194.44 0.0410156 196.337 0.0410156H222.963C224.641 0.0410156 224.91 0.328933 224.96 2.09757C224.96 2.55001 224.96 3.00246 224.96 3.46518C224.96 5.52174 224.701 5.72739 222.743 5.72739H202.409C200.482 5.72739 200.362 5.87135 200.342 7.78395C200.342 12.6991 200.632 11.8971 204.337 11.8971H222.793V11.8765Z" fill="black"/>
<path d="M190.195 10.3855C190.195 10.3855 190.295 16.8636 184.083 16.9768C177.871 17.0899 179.808 13.9536 179.808 13.9536L190.195 10.3855Z" fill="black"/>
<path d="M86.0691 16.9665H85.0704C84.6413 16.9665 84.2297 17.142 83.9263 17.4544C83.6229 17.7668 83.4524 18.1905 83.4524 18.6323V22.3444C83.4551 22.7817 83.6256 23.2001 83.9269 23.5084C84.2282 23.8166 84.6356 23.9896 85.0604 23.9896H89.7543L88.406 26.7968L80.8857 25.2544L81.3451 17.5937L81.7247 15.856H84.7208L86.0691 16.9665Z" fill="black"/>
<path d="M211.358 16.9769H202.369C201.911 16.9769 201.471 17.1643 201.147 17.4979C200.823 17.8315 200.641 18.284 200.641 18.7558V22.2725C200.641 22.7252 200.816 23.1594 201.127 23.4795C201.438 23.7996 201.86 23.9794 202.299 23.9794H207.562L207.323 25.6864L199.253 25.2545L198.584 15.2699L210.399 15.0437L211.358 16.9769Z" fill="black"/>
<path d="M208.042 5.69677H201.79C201.422 5.69677 201.069 5.84736 200.808 6.11541C200.548 6.38346 200.402 6.74701 200.402 7.12608V10.2109C200.402 10.6473 200.57 11.0657 200.87 11.3743C201.169 11.6828 201.576 11.8562 202 11.8562H204.746L204.576 12.7302H199.093L199.852 4.91528H208.042V5.69677Z" fill="black"/>
</g>
<defs>
<clipPath id="clip0_7_7254">
<rect width="225" height="28" fill="white"/>
</clipPath>
</defs>
</svg>
