<svg width="366" height="357" viewBox="0 0 366 357" fill="none" xmlns="http://www.w3.org/2000/svg">
<g clip-path="url(#clip0_106_3417)">
<path d="M193.559 0.62616L75.3774 131.905L0.634277 295.573L188.664 355.943L365.27 310.719L307.1 135.979L193.559 0.62616Z" fill="white" stroke="#333333" stroke-miterlimit="10"/>
<path d="M194.026 16.3864L85.3634 136.832L15.4192 289.993L188.685 345.628L353.031 304.804L299.15 142.268L194.026 16.3864Z" fill="#FF6D01" stroke="#333333" stroke-miterlimit="10"/>
<path d="M181.36 213.137C179.625 217.216 177.031 220.873 173.755 223.859C167.29 216.916 161 222.568 161 222.568C156.759 218.167 148.349 223.285 148.349 223.285C143.167 217.865 143.566 210.323 143.566 210.323C147.824 212.094 152.265 213.391 156.807 214.19C163.246 215.517 169.88 215.59 176.346 214.405C178.039 214.074 179.713 213.651 181.36 213.137V213.137Z" fill="#333333"/>
<path d="M160.973 222.576C160.973 222.576 167.295 216.924 173.728 223.867C171.725 225.716 169.327 227.082 166.716 227.863C164.105 228.643 161.35 228.817 158.661 228.371C153.83 227.574 150.538 225.645 148.298 223.293C148.298 223.293 156.732 218.175 160.973 222.576Z" fill="white"/>
<path d="M129.579 202.51C133.898 205.653 138.576 208.27 143.514 210.307C147.772 212.078 152.213 213.375 156.755 214.173C163.193 215.501 169.827 215.574 176.294 214.388C178.006 214.058 179.699 213.632 181.364 213.113C187.174 211.318 192.607 208.476 197.395 204.727L197.586 204.567" stroke="#333333" stroke-miterlimit="10"/>
<path d="M131.206 198.971C131.085 200.319 130.511 201.585 129.577 202.564C128.643 203.543 127.405 204.176 126.064 204.36" stroke="#333333" stroke-miterlimit="10"/>
<path d="M195.576 201.666C195.887 202.826 196.516 203.875 197.393 204.695C197.944 205.166 198.595 205.505 199.297 205.688C199.998 205.87 200.732 205.891 201.443 205.748" stroke="#333333" stroke-miterlimit="10"/>
<path d="M143.509 210.307C143.509 210.307 143.126 217.848 148.292 223.269C150.548 225.661 153.872 227.566 158.655 228.347C161.344 228.793 164.099 228.619 166.71 227.839C169.321 227.058 171.719 225.692 173.722 223.843C177 220.86 179.597 217.206 181.335 213.129" stroke="#333333" stroke-miterlimit="10"/>
<path d="M148.318 223.293C148.318 223.293 156.728 218.175 160.969 222.576C160.969 222.576 167.291 216.924 173.724 223.867" stroke="#333333" stroke-width="0.797175" stroke-miterlimit="10"/>
<path d="M57.9989 270.52L56.592 273.184L52.6831 271.901L46.7029 283.067L43.1285 281.894L49.1087 270.728L45.2207 269.452L46.6486 266.795L57.9989 270.52ZM65.4932 276.175C66.6359 276.55 67.4272 277.173 67.8672 278.042C68.3212 278.917 68.3561 279.939 67.9719 281.11C67.8438 281.5 67.6648 281.905 67.4348 282.323L63.986 288.74L60.4324 287.573L63.6399 281.61C63.7595 281.387 63.849 281.185 63.9084 281.004C64.1005 280.418 64.082 279.911 63.8527 279.48C63.6374 279.055 63.2371 278.746 62.6518 278.554C61.955 278.325 61.2989 278.349 60.6833 278.625C60.0677 278.902 59.5622 279.407 59.1667 280.142L59.1804 280.1L55.9592 286.105L52.3848 284.932L60.1998 270.363L63.7742 271.536L61.0773 276.578C61.7064 276.213 62.4034 275.995 63.1684 275.921C63.9379 275.834 64.7128 275.919 65.4932 276.175ZM77.6271 280.111C79.1321 280.605 80.1886 281.407 80.7967 282.517C81.4233 283.618 81.5056 284.873 81.0437 286.28C80.8928 286.74 80.723 287.14 80.5344 287.479C80.3735 287.781 80.1778 288.095 79.9474 288.421L71.858 285.766C71.8166 285.845 71.7662 285.975 71.7067 286.156C71.5055 286.769 71.5195 287.291 71.7487 287.721C71.978 288.152 72.3713 288.458 72.9287 288.641C73.8206 288.934 74.6269 288.782 75.3477 288.185L79.152 289.433C78.2616 290.453 77.1285 291.154 75.7528 291.536C74.377 291.918 72.9854 291.878 71.578 291.416C70.073 290.923 69.0048 290.109 68.3734 288.975C67.7559 287.847 67.6828 286.565 68.1538 285.129C68.2956 284.697 68.4838 284.265 68.7183 283.833C69.3253 282.689 70.1048 281.772 71.0571 281.081C72.0093 280.39 73.0532 279.961 74.1888 279.793C75.3243 279.625 76.4704 279.731 77.6271 280.111ZM77.2834 285.532C77.3753 285.346 77.4327 285.218 77.4556 285.149C77.6385 284.591 77.6038 284.109 77.3515 283.702C77.1037 283.281 76.6941 282.977 76.1228 282.79C75.5096 282.588 74.9044 282.598 74.3071 282.819C73.7284 283.03 73.2224 283.443 72.7893 284.057L77.2834 285.532ZM101.149 284.682L99.7212 287.339L93.7429 285.377L92.1635 288.355L96.6368 289.823L95.2432 292.376L90.77 290.908L87.7628 296.543L84.1884 295.37L91.5963 281.547L101.149 284.682ZM97.5878 295.947C99.4635 295.359 100.971 294.858 102.11 294.444C103.249 294.031 104.267 293.563 105.164 293.039C106.08 292.506 106.706 291.916 107.042 291.27C107.148 291.089 107.228 290.914 107.283 290.747C107.415 290.343 107.405 290 107.25 289.718C107.11 289.44 106.824 289.23 106.392 289.089C105.319 288.736 104.386 289.272 103.595 290.695L100.125 289.556C101.064 287.919 102.249 286.849 103.68 286.346C105.129 285.834 106.599 285.822 108.09 286.312C109.539 286.787 110.505 287.467 110.987 288.351C111.483 289.239 111.554 290.22 111.202 291.293C111.092 291.627 110.964 291.924 110.817 292.185C110.099 293.524 108.926 294.605 107.297 295.429C105.683 296.258 103.775 296.99 101.575 297.626L107.219 299.479L105.743 302.213L95.2493 298.769L96.5805 296.265L97.5878 295.947ZM117.116 293.048L115.592 295.929L120.378 297.5L119.013 300.038L114.226 298.467L112.564 301.557L117.977 303.334L116.55 305.991L107.561 303.041L114.969 289.218L123.958 292.168L122.53 294.825L117.116 293.048Z" fill="white"/>
<path d="M203.959 307.837C205.516 307.477 206.785 307.561 207.764 308.087C208.741 308.6 209.359 309.42 209.619 310.549C209.695 310.878 209.738 311.192 209.746 311.491C209.806 312.531 209.576 313.525 209.057 314.472C208.538 315.42 207.731 316.193 206.635 316.792L210.432 322.193L206.295 323.147L202.862 317.956L201.983 318.159L202.286 324.072L198.62 324.918L197.806 309.256L203.959 307.837ZM206.03 312.507C206.005 312.271 205.985 312.118 205.969 312.047C205.863 311.589 205.632 311.274 205.276 311.1C204.931 310.909 204.472 310.879 203.901 311.011L201.629 311.535L201.834 315.461L204.107 314.937C204.778 314.782 205.269 314.496 205.579 314.078C205.904 313.657 206.054 313.133 206.03 312.507ZM217.265 307.837C218.808 307.481 220.128 307.621 221.222 308.256C222.328 308.874 223.048 309.905 223.381 311.348C223.49 311.82 223.551 312.249 223.565 312.638C223.584 312.979 223.579 313.349 223.551 313.747L215.255 315.661C215.26 315.75 215.284 315.888 215.327 316.074C215.472 316.702 215.754 317.142 216.173 317.391C216.592 317.641 217.087 317.7 217.659 317.568C218.573 317.357 219.185 316.809 219.492 315.925L223.394 315.025C223.16 316.359 222.553 317.545 221.573 318.584C220.594 319.622 219.382 320.308 217.939 320.641C216.395 320.998 215.06 320.854 213.934 320.211C212.821 319.564 212.095 318.505 211.755 317.033C211.653 316.59 211.591 316.123 211.567 315.632C211.495 314.339 211.687 313.15 212.145 312.067C212.602 310.983 213.273 310.075 214.158 309.344C215.043 308.613 216.079 308.111 217.265 307.837ZM219.776 312.654C219.759 312.447 219.742 312.308 219.725 312.237C219.593 311.665 219.314 311.27 218.887 311.053C218.458 310.821 217.95 310.772 217.364 310.908C216.735 311.053 216.222 311.374 215.825 311.872C215.439 312.352 215.22 312.968 215.167 313.717L219.776 312.654ZM224.772 312.562C224.703 311.284 224.876 310.108 225.29 309.034C225.705 307.96 226.297 307.07 227.068 306.366C227.838 305.661 228.717 305.195 229.703 304.967C230.546 304.773 231.293 304.781 231.944 304.992C232.595 305.203 233.113 305.558 233.499 306.056L233.408 304.293L237.074 303.447L237.711 315.899L234.046 316.744L233.977 314.977C233.648 315.64 233.173 316.223 232.552 316.728C231.931 317.233 231.199 317.582 230.355 317.777C229.512 317.971 228.717 317.951 227.971 317.717C227.239 317.48 226.613 317.052 226.094 316.434C225.572 315.802 225.201 315.007 224.98 314.05C224.874 313.592 224.805 313.097 224.772 312.562ZM233.738 310.516C233.721 310.249 233.688 310.008 233.639 309.794C233.477 309.094 233.143 308.591 232.636 308.287C232.144 307.979 231.583 307.898 230.954 308.043C230.225 308.211 229.622 308.629 229.144 309.296C228.662 309.949 228.448 310.751 228.502 311.702C228.519 311.969 228.552 312.21 228.601 312.424C228.763 313.124 229.091 313.635 229.587 313.958C230.094 314.262 230.654 314.343 231.269 314.202C231.998 314.034 232.601 313.616 233.08 312.949C233.558 312.281 233.777 311.471 233.738 310.516ZM239.322 309.205C239.252 307.927 239.425 306.751 239.839 305.677C240.254 304.603 240.846 303.713 241.617 303.009C242.388 302.304 243.266 301.838 244.252 301.61C245.038 301.429 245.762 301.435 246.424 301.629C247.1 301.819 247.638 302.161 248.038 302.656L247.743 296.876L251.409 296.031L252.261 312.542L248.595 313.388L248.5 311.603C248.174 312.281 247.708 312.87 247.101 313.371C246.494 313.872 245.769 314.22 244.926 314.415C244.083 314.609 243.288 314.589 242.542 314.355C241.81 314.118 241.175 313.685 240.639 313.056C240.117 312.424 239.745 311.629 239.524 310.671C239.422 310.228 239.354 309.74 239.322 309.205ZM248.287 307.159C248.271 306.892 248.238 306.651 248.188 306.437C248.027 305.737 247.692 305.234 247.186 304.93C246.693 304.622 246.132 304.541 245.504 304.686C244.775 304.854 244.171 305.272 243.693 305.939C243.212 306.592 242.998 307.394 243.052 308.345C243.068 308.612 243.101 308.853 243.15 309.067C243.312 309.767 243.641 310.278 244.136 310.601C244.643 310.905 245.204 310.987 245.818 310.845C246.547 310.677 247.151 310.259 247.629 309.592C248.107 308.924 248.327 308.114 248.287 307.159ZM256.998 298.85L260.182 305.995L262.528 297.574L266.494 296.659L259.954 316.75L256.009 317.66L258.42 310.692L252.925 299.79L256.998 298.85ZM277.443 302.397C277.445 302.471 277.459 302.566 277.485 302.68C277.545 302.938 277.659 303.107 277.828 303.188C278.012 303.266 278.275 303.266 278.618 303.187L279.926 302.885L280.086 306.122L278.221 306.552C275.82 307.106 274.387 306.376 273.922 304.36C273.853 304.06 273.801 303.673 273.767 303.2L273.526 298.243L272.069 298.579L271.902 295.411L273.36 295.075L273.202 292.041L276.867 291.195L277.026 294.229L279.427 293.675L279.593 296.843L277.192 297.397L277.443 302.397ZM287.633 304.561C286.604 304.798 285.642 304.802 284.746 304.572C283.85 304.343 283.093 303.9 282.476 303.245C281.872 302.586 281.455 301.757 281.224 300.757C280.911 299.399 280.947 298.089 281.333 296.825C281.719 295.562 282.404 294.486 283.388 293.597C284.368 292.693 285.552 292.081 286.938 291.762C287.967 291.524 288.931 291.528 289.83 291.772C290.741 291.998 291.505 292.439 292.122 293.094C292.74 293.749 293.165 294.577 293.395 295.578C293.712 296.95 293.67 298.269 293.27 299.535C292.881 300.784 292.187 301.855 291.189 302.747C290.205 303.637 289.02 304.241 287.633 304.561ZM287.421 301.291C288.021 301.153 288.516 300.85 288.905 300.384C289.305 299.901 289.568 299.343 289.693 298.712C289.83 298.064 289.825 297.425 289.68 296.796C289.515 296.082 289.195 295.576 288.721 295.279C288.246 294.982 287.715 294.901 287.129 295.037C286.515 295.178 286.015 295.489 285.629 295.97C285.254 296.433 285.005 296.987 284.883 297.632C284.761 298.277 284.774 298.921 284.923 299.564C285.084 300.265 285.395 300.765 285.856 301.065C286.313 301.351 286.835 301.426 287.421 301.291ZM299.726 293.643C299.64 292.097 299.886 290.648 300.462 289.296C301.049 287.926 301.904 286.773 303.028 285.837C304.148 284.886 305.451 284.239 306.937 283.896C308.738 283.481 310.282 283.583 311.569 284.205C312.871 284.822 313.75 285.892 314.206 287.412L310.176 288.342C309.875 287.884 309.458 287.582 308.928 287.433C308.408 287.267 307.812 287.262 307.14 287.417C305.954 287.69 305.023 288.319 304.347 289.303C303.681 290.269 303.385 291.429 303.456 292.782C303.483 293.227 303.533 293.607 303.606 293.922C303.85 294.979 304.345 295.723 305.092 296.153C305.838 296.583 306.776 296.667 307.905 296.407C308.819 296.196 309.574 295.781 310.169 295.162C310.76 294.529 311.172 293.734 311.402 292.778L306.772 293.846L306.604 291.062L314.578 289.223L314.765 292.769C314.547 293.783 314.129 294.775 313.51 295.746C312.905 296.713 312.116 297.565 311.142 298.302C310.168 299.038 309.052 299.551 307.794 299.842C306.494 300.142 305.293 300.155 304.191 299.883C303.101 299.592 302.186 299.051 301.446 298.258C300.72 297.462 300.217 296.457 299.937 295.242C299.841 294.828 299.771 294.295 299.726 293.643ZM322.573 296.5C321.544 296.737 320.582 296.741 319.686 296.511C318.79 296.281 318.033 295.839 317.415 295.183C316.812 294.525 316.394 293.695 316.164 292.695C315.85 291.337 315.887 290.027 316.273 288.764C316.658 287.501 317.343 286.425 318.327 285.535C319.308 284.632 320.491 284.02 321.878 283.7C322.907 283.463 323.871 283.466 324.77 283.71C325.68 283.937 326.444 284.378 327.062 285.033C327.68 285.688 328.104 286.516 328.335 287.516C328.651 288.888 328.61 290.207 328.209 291.474C327.82 292.722 327.126 293.793 326.128 294.686C325.144 295.575 323.959 296.18 322.573 296.5ZM322.36 293.23C322.961 293.091 323.455 292.789 323.844 292.323C324.245 291.839 324.507 291.282 324.633 290.651C324.769 290.002 324.765 289.363 324.62 288.735C324.455 288.02 324.135 287.514 323.66 287.217C323.185 286.921 322.655 286.84 322.069 286.975C321.454 287.117 320.954 287.428 320.568 287.908C320.193 288.371 319.945 288.925 319.823 289.57C319.701 290.216 319.714 290.86 319.862 291.503C320.024 292.203 320.335 292.703 320.795 293.004C321.253 293.289 321.774 293.365 322.36 293.23Z" fill="white"/>
</g>
<defs>
<clipPath id="clip0_106_3417">
<rect width="365.696" height="356.337" fill="white" transform="translate(0.0820312 0.0205078)"/>
</clipPath>
</defs>
</svg>
