<svg width="182" height="181" viewBox="0 0 182 181" fill="none" xmlns="http://www.w3.org/2000/svg">
<path d="M104.134 1.01168L115.41 27.3884L141.509 15.4819L140.224 44.1392L168.904 44.7356L155.313 69.9975L180.894 82.9785L157.687 99.8417L175.103 122.636L146.878 127.761L152.679 155.854L125.026 148.225L118.062 176.053L96.4582 157.181L78.1104 179.232L66.8338 152.856L40.7354 164.762L42.02 136.105L13.3402 135.508L26.9315 110.246L1.35057 97.2654L24.5567 80.4023L7.14131 57.6076L35.3659 52.4832L29.5655 24.3897L57.2184 32.0189L64.1817 4.19081L85.7859 23.0627L104.134 1.01168Z" fill="#FF6D01" stroke="#333333" stroke-miterlimit="10"/>
</svg>
