<svg width="208" height="206" viewBox="0 0 208 206" fill="none" xmlns="http://www.w3.org/2000/svg">
<path d="M118.807 1.33466L131.642 31.3563L161.347 17.8045L159.885 50.422L192.528 51.1007L177.059 79.8536L206.175 94.6285L179.762 113.822L199.584 139.767L167.459 145.599L174.061 177.575L142.586 168.891L134.661 200.565L110.071 179.085L89.1878 204.184L76.3529 174.162L46.648 187.714L48.1101 155.096L15.4669 154.417L30.9364 125.665L1.82049 110.89L28.2334 91.6962L8.41145 65.7516L40.5365 59.919L33.9344 27.9433L65.4087 36.6268L73.3342 4.95312L97.9239 26.4329L118.807 1.33466Z" fill="white" stroke="#333333" stroke-miterlimit="10"/>
</svg>
