<svg width="282" height="284" viewBox="0 0 282 284" fill="none" xmlns="http://www.w3.org/2000/svg">
<g clip-path="url(#clip0_7_4772)">
<path d="M176.396 0.688721L36.5555 40.7388L1.32031 181.863L105.918 282.945L245.758 242.895L280.993 101.771L176.396 0.688721Z" fill="white" stroke="#333333" stroke-miterlimit="10"/>
<path d="M173.135 10.9167L44.7338 47.6904L12.7432 178.587L109.17 272.709L237.578 235.935L269.561 105.039L173.135 10.9167Z" fill="#FFD217" stroke="#333333" stroke-miterlimit="10"/>
<path d="M189.151 74.9617C189.475 76.0784 189.691 77.2236 189.796 78.3815L164.901 85.5083L132.599 94.7556C132.073 93.7192 131.646 92.6356 131.324 91.519C127.792 79.1947 137.884 65.4912 153.876 60.9155C169.867 56.3397 185.627 62.6374 189.151 74.9617Z" fill="#FFD217"/>
<path d="M189.795 78.3894C190.218 83.2841 188.655 88.2425 185.578 92.6349C168.319 98.2151 164.852 85.5241 164.852 85.5241L189.795 78.3894Z" fill="#333333"/>
<path d="M164.886 85.5166C164.886 85.5166 168.314 98.1996 185.612 92.6274C181.563 98.4149 174.882 103.206 166.648 105.566C152.219 109.695 137.949 104.984 132.68 94.9552C132.644 94.8973 132.615 94.8358 132.592 94.7718L164.886 85.5166Z" fill="white"/>
<path d="M185.571 92.5956C181.521 98.3831 174.841 103.174 166.606 105.534C152.177 109.663 137.908 104.952 132.638 94.9233C132.603 94.8654 132.573 94.804 132.551 94.74C132.025 93.7037 131.598 92.62 131.275 91.5034C127.744 79.1791 137.836 65.4757 153.827 60.8999C169.819 56.3241 185.627 62.6059 189.15 74.9302C189.474 76.0469 189.69 77.1921 189.796 78.3501C190.218 83.2447 188.656 88.2031 185.579 92.5956" stroke="#333333" stroke-width="0.797175" stroke-miterlimit="10"/>
<path d="M189.794 78.3894L164.898 85.5162L132.596 94.7634" stroke="#333333" stroke-width="0.797175" stroke-miterlimit="10"/>
<path d="M164.884 85.5166C164.884 85.5166 168.312 98.1996 185.61 92.6274" stroke="#333333" stroke-width="0.797175" stroke-miterlimit="10"/>
<path d="M147.547 69.9717C147.547 69.9717 134.274 78.2464 137.981 88.522" stroke="white" stroke-width="2.39153" stroke-miterlimit="10" stroke-linecap="round"/>
<path d="M239.059 60.7081C239.377 61.826 239.59 62.9708 239.697 64.128L214.801 71.2547L182.5 80.502C181.968 79.4647 181.538 78.378 181.216 77.2575C177.693 64.9331 187.777 51.2297 203.768 46.6539C219.76 42.0781 235.528 48.3439 239.059 60.7081Z" fill="#FFD217"/>
<path d="M239.683 64.0962C240.003 69.1937 238.509 74.2401 235.465 78.3417C218.207 83.9219 214.779 71.2309 214.779 71.2309L239.683 64.0962Z" fill="#333333"/>
<path d="M214.788 71.2229C214.788 71.2229 218.216 83.9059 235.475 78.3337C231.433 84.1212 224.753 88.9122 216.51 91.2719C202.081 95.4012 187.812 90.6899 182.543 80.6615C182.508 80.607 182.481 80.5479 182.463 80.4861L214.788 71.2229Z" fill="white"/>
<path d="M235.476 78.3336C231.434 84.1211 224.754 88.9122 216.511 91.2718C202.082 95.4012 187.813 90.6899 182.543 80.6614C182.509 80.6069 182.482 80.5478 182.463 80.486C181.931 79.4487 181.502 78.3621 181.18 77.2415C177.656 64.9172 187.741 51.2137 203.732 46.6379C219.723 42.0621 235.531 48.3439 239.063 60.6682C239.38 61.7861 239.594 62.9309 239.701 64.0881C240.021 69.1856 238.527 74.232 235.484 78.3336" stroke="#333333" stroke-width="0.797175" stroke-miterlimit="10"/>
<path d="M239.685 64.0962L214.789 71.2229L182.487 80.4702" stroke="#333333" stroke-width="0.797175" stroke-miterlimit="10"/>
<path d="M214.787 71.2229C214.787 71.2229 218.214 83.9059 235.473 78.3337" stroke="#333333" stroke-width="0.797175" stroke-miterlimit="10"/>
<path d="M197.48 55.678C197.48 55.678 184.215 63.9367 187.89 74.2601" stroke="white" stroke-width="2.39153" stroke-miterlimit="10" stroke-linecap="round"/>
<path d="M54.3778 176.213L51.929 177.975L47.4176 173.589L44.6918 175.572L48.0674 178.854L45.6952 180.536L42.3196 177.254L37.1449 180.999L34.4475 178.377L47.1692 169.205L54.3778 176.213ZM54.0416 183.404C54.9629 183.277 55.8296 183.322 56.6416 183.538C57.4744 183.755 58.18 184.144 58.7584 184.707L55.4779 187.071L54.7365 186.35C54.0635 185.696 53.3893 185.327 52.7139 185.243C52.0488 185.149 51.3004 185.403 50.4688 186.006L45.7712 189.386L43.0739 186.763L53.1771 179.464L55.8744 182.087L54.0416 183.404ZM53.7206 197.36C52.9634 196.624 52.4387 195.817 52.1463 194.939C51.8539 194.062 51.8156 193.186 52.0315 192.312C52.2578 191.448 52.7289 190.647 53.4445 189.911C54.4158 188.912 55.5368 188.233 56.8074 187.873C58.0781 187.512 59.3538 187.505 60.6344 187.85C61.9252 188.184 63.0806 188.847 64.1007 189.839C64.8578 190.575 65.3775 191.387 65.6597 192.275C65.9626 193.163 66.0061 194.044 65.7902 194.918C65.5744 195.793 65.1086 196.598 64.3929 197.334C63.4114 198.343 62.2801 199.023 60.9989 199.373C59.7385 199.723 58.4627 199.72 57.1715 199.365C55.8909 199.02 54.7406 198.351 53.7206 197.36ZM56.3535 195.409C56.7952 195.838 57.3173 196.09 57.9199 196.165C58.5433 196.239 59.1541 196.158 59.7523 195.921C60.3713 195.684 60.9057 195.335 61.3556 194.872C61.8668 194.346 62.1184 193.803 62.1105 193.243C62.1026 192.683 61.8831 192.194 61.452 191.774C60.9998 191.335 60.4673 191.083 59.8544 191.019C59.2623 190.955 58.662 191.046 58.0536 191.293C57.4451 191.54 56.9108 191.901 56.4508 192.374C55.9498 192.889 55.698 193.422 55.6954 193.971C55.703 194.511 55.9223 194.99 56.3535 195.409ZM75.4385 200.923C76.3219 201.782 76.7757 202.704 76.7999 203.689C76.8242 204.674 76.4069 205.608 75.5481 206.492C75.2618 206.786 74.9235 207.071 74.5333 207.346L68.619 211.599L65.9374 208.992L71.4359 205.04C71.6413 204.892 71.8104 204.75 71.9433 204.613C72.3727 204.171 72.5788 203.707 72.5616 203.22C72.5548 202.743 72.3306 202.29 71.889 201.86C71.3632 201.349 70.763 201.083 70.0886 201.061C69.4141 201.039 68.738 201.272 68.0603 201.759L68.137 201.68L62.5618 205.71L59.8644 203.087L69.9676 195.789L72.665 198.411L71.3097 199.395C72.035 199.343 72.7573 199.442 73.4764 199.691C74.2061 199.95 74.8602 200.361 75.4385 200.923ZM77.0973 213.95C77.0357 213.993 76.964 214.056 76.8822 214.14C76.6982 214.329 76.6178 214.517 76.6412 214.704C76.6751 214.9 76.8182 215.121 77.0706 215.367L78.0328 216.302L75.399 218.191L74.0267 216.856C72.26 215.139 72.0975 213.539 73.539 212.056C73.7537 211.835 74.0509 211.582 74.4307 211.296L78.4662 208.408L77.3935 207.365L79.9656 205.509L81.0382 206.552L83.5024 204.774L86.1997 207.397L83.7355 209.174L85.5022 210.892L82.9302 212.748L81.1635 211.03L77.0973 213.95ZM91.339 220.739L88.7512 222.58L81.8107 215.833L84.3985 213.991L91.339 220.739ZM99.0216 223.759L96.3883 225.679L100.001 229.191L97.6594 230.873L94.0472 227.361L91.1978 229.408L95.2832 233.38L92.8343 235.142L86.0516 228.547L98.7732 219.376L105.556 225.97L103.107 227.731L99.0216 223.759ZM110.16 234.68C111.043 235.539 111.497 236.461 111.521 237.446C111.545 238.431 111.128 239.365 110.269 240.248C109.983 240.543 109.645 240.827 109.254 241.103L103.34 245.355L100.658 242.748L106.157 238.797C106.362 238.649 106.531 238.506 106.664 238.37C107.094 237.928 107.3 237.464 107.283 236.976C107.276 236.499 107.052 236.046 106.61 235.617C106.084 235.106 105.484 234.839 104.81 234.818C104.135 234.796 103.459 235.028 102.781 235.515L102.858 235.436L97.2828 239.466L94.5855 236.844L104.689 229.545L107.386 232.168L106.031 233.151C106.756 233.099 107.478 233.198 108.197 233.447C108.927 233.707 109.581 234.118 110.16 234.68ZM109.761 243.006C110.798 242.255 111.88 241.763 113.007 241.529C114.134 241.296 115.203 241.312 116.213 241.577C117.223 241.843 118.09 242.329 118.816 243.034C119.394 243.597 119.781 244.208 119.977 244.869C120.184 245.541 120.188 246.179 119.989 246.783L124.686 243.403L127.384 246.025L113.969 255.689L111.272 253.067L112.719 252.019C111.974 252.113 111.226 252.04 110.476 251.802C109.726 251.564 109.04 251.143 108.42 250.54C107.8 249.936 107.385 249.258 107.178 248.504C106.981 247.76 107.001 246.992 107.239 246.2C107.487 245.419 107.954 244.676 108.639 243.971C108.956 243.645 109.33 243.324 109.761 243.006ZM116.339 249.432C116.554 249.274 116.739 249.116 116.892 248.958C117.393 248.443 117.634 247.89 117.616 247.299C117.608 246.718 117.372 246.203 116.909 245.753C116.373 245.231 115.695 244.95 114.875 244.91C114.065 244.859 113.275 245.114 112.505 245.675C112.29 245.833 112.105 245.992 111.952 246.149C111.451 246.665 111.2 247.218 111.198 247.809C111.216 248.4 111.452 248.915 111.904 249.355C112.44 249.876 113.118 250.157 113.938 250.197C114.758 250.238 115.558 249.983 116.339 249.432Z" fill="white"/>
</g>
<defs>
<clipPath id="clip0_7_4772">
<rect width="280.558" height="283.149" fill="white" transform="translate(0.875 0.242188)"/>
</clipPath>
</defs>
</svg>
